{
  "accessors": [
    {
      "bufferView": 2,
      "componentType": 5126,
      "count": 3156,
      "max": [
        10,
        10,
        1.1000000238418579
      ],
      "min": [
        -10,
        -10,
        0
      ],
      "type": "VEC3"
    },
    {
      "bufferView": 2,
      "byteOffset": 37872,
      "componentType": 5126,
      "count": 3156,
      "max": [
        0.99518483877182007,
        0.99518477916717529,
        1
      ],
      "min": [
        -0.99518477916717529,
        -0.99518477916717529,
        -1
      ],
      "type": "VEC3"
    },
    {
      "bufferView": 1,
      "componentType": 5126,
      "count": 3156,
      "max": [
        0.98529422283172607,
        0.86699998378753662
      ],
      "min": [
        0.38749998807907104,
        0.019205808639526367
      ],
      "type": "VEC2"
    },
    {
      "bufferView": 0,
      "componentType": 5125,
      "count": 5220,
      "max": [
        3155
      ],
      "min": [
        0
      ],
      "type": "SCALAR"
    },
    {
      "bufferView": 2,
      "byteOffset": 75744,
      "componentType": 5126,
      "count": 5504,
      "max": [
        4.9758076667785645,
        4.9758076667785645,
        1
      ],
      "min": [
        -4.9758076667785645,
        -4.9758076667785645,
        0
      ],
      "type": "VEC3"
    },
    {
      "bufferView": 2,
      "byteOffset": 141792,
      "componentType": 5126,
      "count": 5504,
      "max": [
        0.99520903825759888,
        0.99520903825759888,
        1
      ],
      "min": [
        -0.99520903825759888,
        -0.99520903825759888,
        -1
      ],
      "type": "VEC3"
    },
    {
      "bufferView": 1,
      "byteOffset": 25248,
      "componentType": 5126,
      "count": 5504,
      "max": [
        1,
        0.87500017881393433
      ],
      "min": [
        0.38058054447174072,
        0.0055807232856750488
      ],
      "type": "VEC2"
    },
    {
      "bufferView": 0,
      "byteOffset": 20880,
      "componentType": 5125,
      "count": 9624,
      "max": [
        5503
      ],
      "min": [
        0
      ],
      "type": "SCALAR"
    }
  ],
  "asset": {
    "extras": {
      "author": "MRowa (https://sketchfab.com/MRowa)",
      "license": "CC-BY-SA-4.0 (http://creativecommons.org/licenses/by-sa/4.0/)",
      "source": "https://sketchfab.com/3d-models/medium-show-room-59cf5de086154ea3a8c340078f5c7a79",
      "title": "Medium Show Room"
    },
    "generator": "Sketchfab-8.77.2",
    "version": "2.0"
  },
  "bufferViews": [
    {
      "buffer": 0,
      "byteLength": 59376,
      "byteOffset": 0,
      "name": "floatBufferViews",
      "target": 34963
    },
    {
      "buffer": 0,
      "byteLength": 69280,
      "byteOffset": 59376,
      "byteStride": 8,
      "name": "floatBufferViews",
      "target": 34962
    },
    {
      "buffer": 0,
      "byteLength": 207840,
      "byteOffset": 128656,
      "byteStride": 12,
      "name": "floatBufferViews",
      "target": 34962
    }
  ],
  "buffers": [
    {
      "byteLength": 336496,
      "uri": "scene.bin"
    }
  ],
  "images": [
    {
      "uri": "textures/Placeable_baseColor.png"
    },
    {
      "uri": "textures/Placeable_metallicRoughness.png"
    },
    {
      "uri": "textures/Placeable_emissive.png"
    }
  ],
  "materials": [
    {
      "doubleSided": true,
      "emissiveFactor": [
        1,
        1,
        1
      ],
      "emissiveTexture": {
        "index": 2,
        "texCoord": 0
      },
      "name": "Placeable",
      "pbrMetallicRoughness": {
        "baseColorFactor": [
          1,
          1,
          1,
          1
        ],
        "baseColorTexture": {
          "index": 0,
          "texCoord": 0
        },
        "metallicFactor": 1,
        "metallicRoughnessTexture": {
          "index": 1,
          "texCoord": 0
        },
        "roughnessFactor": 1
      }
    }
  ],
  "meshes": [
    {
      "name": "MediumShowRoom_Foundation_Placeable_0",
      "primitives": [
        {
          "attributes": {
            "NORMAL": 1,
            "POSITION": 0,
            "TEXCOORD_0": 2
          },
          "indices": 3,
          "material": 0,
          "mode": 4
        }
      ]
    },
    {
      "name": "MediumShowRoom_Body_Placeable_0",
      "primitives": [
        {
          "attributes": {
            "NORMAL": 5,
            "POSITION": 4,
            "TEXCOORD_0": 6
          },
          "indices": 7,
          "material": 0,
          "mode": 4
        }
      ]
    }
  ],
  "nodes": [
    {
      "children": [
        1
      ],
      "name": "RootNode (gltf orientation matrix)",
      "rotation": [
        -0.70710678118654746,
        -0,
        -0,
        0.70710678118654757
      ]
    },
    {
      "children": [
        2
      ],
      "name": "RootNode (model correction matrix)"
    },
    {
      "children": [
        3
      ],
      "matrix": [
        1,
        0,
        0,
        0,
        0,
        0,
        1,
        0,
        0,
        -1,
        0,
        0,
        0,
        0,
        0,
        1
      ],
      "name": "280b1cca97004d54adcc0d09f985b54e.fbx"
    },
    {
      "children": [
        4
      ],
      "name": "RootNode"
    },
    {
      "children": [
        5,
        7
      ],
      "matrix": [
        100,
        0,
        0,
        0,
        0,
        -1.6292067939183141e-05,
        -99.999999999998678,
        0,
        0,
        99.999999999998678,
        -1.6292067939183141e-05,
        0,
        0,
        0,
        0,
        1
      ],
      "name": "MediumShowRoom"
    },
    {
      "children": [
        6
      ],
      "matrix": [
        1,
        0,
        0,
        0,
        0,
        1,
        -2.646977960169688e-23,
        0,
        0,
        2.646977960169688e-23,
        1,
        0,
        0,
        0,
        0,
        1
      ],
      "name": "MediumShowRoom_Foundation"
    },
    {
      "mesh": 0,
      "name": "MediumShowRoom_Foundation_Placeable_0"
    },
    {
      "children": [
        8
      ],
      "matrix": [
        1,
        0,
        0,
        0,
        0,
        1,
        -2.646977960169688e-23,
        0,
        0,
        2.646977960169688e-23,
        1,
        0,
        0,
        2.6469779601696886e-23,
        1,
        1
      ],
      "name": "MediumShowRoom_Body"
    },
    {
      "mesh": 1,
      "name": "MediumShowRoom_Body_Placeable_0"
    }
  ],
  "samplers": [
    {
      "magFilter": 9728,
      "minFilter": 9728,
      "wrapS": 10497,
      "wrapT": 10497
    }
  ],
  "scene": 0,
  "scenes": [
    {
      "name": "OSG_Scene",
      "nodes": [
        0
      ]
    }
  ],
  "textures": [
    {
      "sampler": 0,
      "source": 0
    },
    {
      "sampler": 0,
      "source": 1
    },
    {
      "sampler": 0,
      "source": 2
    }
  ]
}

